<svg width="1361" height="670" viewBox="0 0 1361 670" fill="none" xmlns="http://www.w3.org/2000/svg">
<path d="M1361 539.473V76.4098C1361 67.5733 1353.84 60.4098 1345 60.4098H710.993C700.386 60.4098 690.214 56.1972 682.713 48.6983L645.715 11.7115C638.214 4.21264 628.042 0 617.435 0H40C17.9086 0 0 17.9086 0 40V517.715C0 529.009 4.77405 539.776 13.1436 547.359L76.4637 604.725C83.8206 611.391 93.3929 615.082 103.32 615.082H997.916C1007.13 615.082 1016.07 618.265 1023.21 624.092L1068.42 660.99C1075.56 666.817 1084.49 670 1093.71 670H1282.55C1304.64 670 1322.55 652.091 1322.55 630V611.06C1322.55 600.449 1326.76 590.273 1334.27 582.771L1349.28 567.761C1356.78 560.26 1361 550.084 1361 539.473Z" fill="#F5F5F5"/>
</svg>
