<svg width="1361" height="670" viewBox="0 0 1361 670" fill="none" xmlns="http://www.w3.org/2000/svg">
<path d="M0 539.473V76.4098C0 67.5733 7.16343 60.4098 16 60.4098H650.007C660.614 60.4098 670.786 56.1972 678.287 48.6983L715.285 11.7115C722.786 4.21264 732.958 0 743.565 0H1321C1343.09 0 1361 17.9086 1361 40V517.715C1361 529.009 1356.23 539.776 1347.86 547.359L1284.54 604.725C1277.18 611.391 1267.61 615.082 1257.68 615.082H363.084C353.867 615.082 344.934 618.265 337.793 624.092L292.579 660.99C285.439 666.817 276.505 670 267.289 670H78.4541C56.3627 670 38.4541 652.091 38.4541 630V611.06C38.4541 600.449 34.2382 590.273 26.7341 582.771L11.7199 567.761C4.21591 560.26 0 550.084 0 539.473Z" fill="#F5F5F5"/>
</svg>
