<svg width="36" height="22" viewBox="0 0 36 22" fill="none" xmlns="http://www.w3.org/2000/svg">
<g clip-path="url(#clip0_690_770)">
<path d="M1.3886 10.7017C1.16973 10.5977 0.909071 10.6912 0.805603 10.9093C0.270856 12.0355 0 13.2421 0 14.4949C0 15.7477 0.269363 16.9542 0.80038 18.0842C0.875245 18.2426 1.03244 18.3354 1.19709 18.3354C1.25952 18.3354 1.32269 18.3222 1.38288 18.2936C1.60175 18.1909 1.69527 17.9302 1.5928 17.7113C1.11675 16.699 0.875245 15.6171 0.875245 14.4949C0.875245 13.3727 1.118 12.2927 1.59628 11.2847C1.70025 11.0663 1.60698 10.8054 1.3886 10.7017Z" fill="black"/>
<path d="M2.97568 14.494C2.97568 13.7297 3.12268 12.997 3.41293 12.316C3.50769 12.0936 3.40448 11.8364 3.18162 11.7419C2.95902 11.6467 2.70259 11.7504 2.60758 11.973C2.27081 12.7632 2.10019 13.6113 2.10019 14.4943C2.10019 15.3772 2.27106 16.2271 2.60882 17.0183C2.67971 17.1847 2.84162 17.2844 3.0115 17.2844C3.0687 17.2844 3.1274 17.273 3.18336 17.2491C3.40547 17.1543 3.50894 16.8971 3.41418 16.675C3.12317 15.9928 2.97568 15.2591 2.97568 14.4943V14.494Z" fill="black"/>
<path d="M34.8228 10.9093C34.7193 10.6912 34.4581 10.5977 34.2398 10.7017C34.0214 10.8054 33.9284 11.0663 34.0321 11.2847C34.5104 12.2925 34.7531 13.3727 34.7531 14.4949C34.7531 15.6171 34.5116 16.7 34.0356 17.7113C33.9331 17.93 34.0266 18.1906 34.2455 18.2936C34.3057 18.3219 34.3691 18.3354 34.4313 18.3354C34.5959 18.3354 34.7531 18.2426 34.8275 18.0842C35.359 16.9555 35.6284 15.7477 35.6284 14.4949C35.6284 13.2421 35.3575 12.0355 34.8228 10.9096V10.9093Z" fill="black"/>
<path d="M32.447 11.7417C32.2249 11.8365 32.1209 12.0934 32.2157 12.3158C32.5054 12.9973 32.6524 13.73 32.6524 14.4941C32.6524 15.2581 32.5049 15.9933 32.2139 16.6746C32.1192 16.8969 32.2224 17.1539 32.4447 17.2486C32.5007 17.2727 32.5589 17.2842 32.6166 17.2842C32.7862 17.2842 32.9484 17.1845 33.0193 17.0181C33.3568 16.2279 33.5279 15.3785 33.5279 14.4938C33.5279 13.6091 33.3575 12.7632 33.021 11.9728C32.9265 11.7502 32.6688 11.6472 32.447 11.7415V11.7417Z" fill="black"/>
<path d="M14.4145 1.63856C14.4775 1.63856 14.5411 1.62513 14.6018 1.59628C16.6177 0.639209 19.0049 0.641199 21.0285 1.59255C21.2481 1.69602 21.508 1.60126 21.611 1.38288C21.7135 1.16401 21.6199 0.90335 21.4011 0.800628C20.2714 0.269363 19.0636 0 17.8116 0C16.5595 0 15.3525 0.270856 14.2265 0.805603C14.0081 0.909319 13.9151 1.17047 14.0188 1.3886C14.0937 1.54654 14.2509 1.63856 14.4145 1.63856Z" fill="black"/>
<path d="M15.2898 2.60731C15.0674 2.70207 14.9637 2.959 15.0585 3.18135C15.1525 3.40371 15.4102 3.50668 15.6325 3.41266C16.997 2.83215 18.6301 2.8329 19.9916 3.4139C20.0476 3.43778 20.1062 3.44922 20.1635 3.44922C20.3331 3.44922 20.495 3.34949 20.5659 3.18309C20.6606 2.96099 20.5574 2.70381 20.3351 2.60905C18.7552 1.93502 16.8726 1.93427 15.2895 2.60731H15.2898Z" fill="black"/>
<path d="M20.9681 15.7482H13.8256C13.3321 15.7482 12.9327 16.1476 12.9327 16.6411C12.9327 17.626 13.7333 18.4267 14.7183 18.4267H20.0752C21.0601 18.4267 21.8607 17.626 21.8607 16.6411C21.8607 16.1476 21.4613 15.7482 20.9678 15.7482H20.9681ZM20.0752 17.534H14.7183C14.2248 17.534 13.8253 17.1346 13.8253 16.6411H20.9678C20.9678 17.1346 20.5684 17.534 20.0749 17.534H20.0752ZM8.46867 17.534C8.46867 18.0275 8.06922 18.4269 7.57577 18.4269C7.08231 18.4269 6.68286 18.0275 6.68286 17.534C6.68286 17.0405 7.08231 16.6411 7.57577 16.6411C8.06922 16.6411 8.46867 17.0405 8.46867 17.534ZM28.1123 17.534C28.1123 18.0275 27.7129 18.4269 27.2194 18.4269C26.7259 18.4269 26.3265 18.0275 26.3265 17.534C26.3265 17.0405 26.7259 16.6411 27.2194 16.6411C27.7129 16.6411 28.1123 17.0405 28.1123 17.534ZM30.5719 8.71515H28.4254C28.0874 8.71515 27.7823 8.90343 27.6305 9.20662L27.498 9.46977L25.2727 6.13096C24.8101 5.43777 24.0534 4.99058 23.2222 4.9366C21.281 4.81001 19.338 4.74658 17.397 4.74658C15.456 4.74658 13.5127 4.81001 11.5717 4.9366C10.7405 4.99033 9.98188 5.43777 9.52125 6.13096L7.29596 9.46977L7.16339 9.20662C7.01167 8.90319 6.70649 8.71515 6.36848 8.71515H4.22178C3.7323 8.71515 3.33286 9.1146 3.33286 9.60408C3.33286 9.94209 3.52114 10.2473 3.82433 10.399L5.96332 11.4685L5.64645 11.9445C5.15697 12.678 4.89581 13.5401 4.89581 14.4213V21.1069C4.89581 21.6003 5.29525 21.9998 5.78871 21.9998H9.35983C9.85329 21.9998 10.2527 21.6003 10.2527 21.1069V20.214H24.5397V21.1069C24.5397 21.6003 24.9391 21.9998 25.4326 21.9998H29.0037C29.4972 21.9998 29.8966 21.6003 29.8966 21.1069V14.4213C29.8966 13.5401 29.6355 12.678 29.146 11.9445L28.8291 11.4685L30.9681 10.399C31.2715 10.2473 31.4596 9.94209 31.4596 9.60408C31.4596 9.11435 31.0601 8.71515 30.5707 8.71515H30.5726H30.5719ZM6.36425 9.60607L6.71171 10.3012L6.4334 10.7064L4.23496 9.60806H6.36425V9.60607ZM29.0052 21.1071H25.4341V20.2142C25.4341 19.7208 25.0346 19.3213 24.5412 19.3213H10.2542C9.76077 19.3213 9.36132 19.7208 9.36132 20.2142V21.1071H5.78822V14.4215C5.78822 13.7149 5.99565 13.0294 6.38738 12.44L10.2619 6.62815C10.5711 6.16354 11.0817 5.86408 11.6289 5.82951C13.543 5.70465 15.4823 5.64123 17.3967 5.64123C19.3111 5.64123 21.2501 5.70465 23.1645 5.82951C23.71 5.86607 24.2206 6.16354 24.5317 6.62815L28.4063 12.44C28.798 13.0294 29.0055 13.7129 29.0055 14.4215V21.1071H29.0052ZM28.36 10.7064L28.0817 10.3012L28.4254 9.60806H30.5547L28.36 10.7044V10.7064ZM27.5191 12.7568L23.562 13.4172C22.8362 13.5383 22.3082 14.1604 22.3082 14.8976C22.3082 15.1453 22.5079 15.3448 22.7556 15.3448H27.2197C27.9588 15.3448 28.5598 14.7439 28.5598 14.0047V13.6381C28.5598 13.3752 28.4446 13.1274 28.2449 12.9566C28.0432 12.7857 27.7783 12.7126 27.5211 12.7568H27.5191ZM27.6651 14.0029C27.6651 14.2487 27.4654 14.4504 27.2177 14.4504H23.3948C23.4794 14.3715 23.5868 14.3178 23.7077 14.2987L27.6649 13.6381V14.0047V14.0027L27.6651 14.0029ZM11.2317 13.4155L7.27457 12.7551C7.01913 12.7108 6.75225 12.784 6.55079 12.9548C6.35107 13.1257 6.23591 13.3734 6.23591 13.6366V14.0032C6.23591 14.7424 6.83682 15.3433 7.57601 15.3433H12.04C12.2878 15.3433 12.4872 15.1436 12.4872 14.8958C12.4872 14.1586 11.9592 13.5366 11.2334 13.4155H11.2314H11.2317ZM7.57402 14.4484C7.32829 14.4484 7.12658 14.2487 7.12658 14.0009V13.6343L11.0837 14.2947C11.2046 14.3138 11.3123 14.3695 11.3966 14.4464H7.57378V14.4484H7.57402ZM8.5301 11.2842H26.2633C26.4285 11.2842 26.5802 11.1939 26.6568 11.0479C26.7337 10.9019 26.7259 10.7273 26.6337 10.589L24.1569 6.87562C23.9246 6.52617 23.5406 6.30158 23.1334 6.27472C19.3298 6.02699 15.4592 6.02699 11.6575 6.27472C11.2506 6.30158 10.8683 6.52617 10.634 6.87562L8.15727 10.589C8.065 10.7253 8.05754 10.9019 8.13414 11.0479C8.211 11.1939 8.36271 11.2842 8.52786 11.2842H8.52985H8.5301ZM11.3774 7.37132C11.458 7.25044 11.5849 7.17359 11.7155 7.16588C15.4806 6.92014 19.3111 6.92014 23.0762 7.16588C23.2085 7.17359 23.3334 7.25044 23.4142 7.37132L25.4284 10.3915H9.3653L11.3794 7.37132H11.3774Z" fill="black"/>
</g>
<defs>
<clipPath id="clip0_690_770">
<rect width="35.6283" height="22" fill="white"/>
</clipPath>
</defs>
</svg>
