<svg width="31" height="20" viewBox="0 0 31 20" fill="none" xmlns="http://www.w3.org/2000/svg">
<g clip-path="url(#clip0_690_813)">
<path d="M29.3187 5.70039H27.0098C26.6465 5.70039 26.321 5.90478 26.1544 6.23029L26.0106 6.51039L23.6185 2.91462C23.1188 2.16519 22.3089 1.68828 21.408 1.62772C20.212 1.55202 19.0083 1.49903 17.8123 1.46875C17.8425 1.62772 17.8653 1.79426 17.8653 1.96837C17.8653 2.12734 17.8425 2.28631 17.8198 2.43771C19.0008 2.46799 20.1817 2.52098 21.355 2.59668C21.9455 2.63453 22.4905 2.96004 22.8236 3.45967L26.9947 9.7125C27.4186 10.3484 27.6382 11.0827 27.6382 11.8473V19.0463H23.7926V18.0849C23.7926 17.555 23.3611 17.1236 22.8312 17.1236H7.4489C6.919 17.1236 6.48751 17.555 6.48751 18.0849V19.0463H2.64194V11.8473C2.64194 11.0902 2.86147 10.3484 3.28539 9.7125L7.45647 3.45967C7.78955 2.96004 8.34216 2.63453 8.92506 2.59668C10.0984 2.52098 11.2793 2.46799 12.4603 2.43771C12.43 2.28631 12.4148 2.12734 12.4148 1.96837C12.4148 1.80183 12.4375 1.63529 12.4678 1.46875C11.2718 1.49903 10.0681 1.55202 8.87207 1.62772C7.9788 1.68828 7.16124 2.16519 6.66162 2.91462L4.26949 6.51039L4.12566 6.23029C3.95912 5.90478 3.63361 5.70039 3.27025 5.70039H0.953823C0.423921 5.70039 0 6.13188 0 6.65422C0 7.01758 0.204391 7.34309 0.529902 7.50963L2.83119 8.66027L2.49054 9.17503C1.96064 9.96232 1.68054 10.8934 1.68054 11.8397V19.0388C1.68054 19.5687 2.11204 20.0002 2.64194 20.0002H6.48751C7.01741 20.0002 7.4489 19.5687 7.4489 19.0388V18.0774H22.8312V19.0388C22.8312 19.5687 23.2627 20.0002 23.7926 20.0002H27.6382C28.1681 20.0002 28.5995 19.5687 28.5995 19.0388V11.8397C28.5995 10.8934 28.3195 9.96232 27.7896 9.17503L27.4489 8.66027L29.7502 7.50963C30.0757 7.34309 30.2801 7.01758 30.2801 6.65422C30.2801 6.12431 29.8486 5.70039 29.3263 5.70039H29.3187ZM0.968963 6.66179H3.26268L3.63361 7.41122L3.33081 7.85028L0.961393 6.66936L0.968963 6.66179ZM26.9417 7.84271L26.6389 7.41122L27.0098 6.66179H29.3036L26.9417 7.84271Z" fill="black"/>
<path d="M3.60333 15.1933C3.60333 15.7232 4.03482 16.1547 4.56473 16.1547C5.09463 16.1547 5.52612 15.7232 5.52612 15.1933C5.52612 14.6634 5.09463 14.2319 4.56473 14.2319C4.03482 14.2319 3.60333 14.6634 3.60333 15.1933Z" fill="black"/>
<path d="M26.6768 15.1933C26.6768 14.6634 26.2453 14.2319 25.7154 14.2319C25.1855 14.2319 24.754 14.6634 24.754 15.1933C24.754 15.7232 25.1855 16.1547 25.7154 16.1547C26.2453 16.1547 26.6768 15.7232 26.6768 15.1933Z" fill="black"/>
<path d="M15.1401 3.93641C14.0575 3.93641 13.1718 3.05072 13.1718 1.96821C13.1718 0.885693 14.0575 0 15.1401 0C16.2226 0 17.1083 0.885693 17.1083 1.96821C17.1083 3.05072 16.2226 3.93641 15.1401 3.93641ZM15.1401 0.984103C14.595 0.984103 14.1559 1.42316 14.1559 1.96821C14.1559 2.51325 14.595 2.95231 15.1401 2.95231C15.6851 2.95231 16.1242 2.51325 16.1242 1.96821C16.1242 1.42316 15.6851 0.984103 15.1401 0.984103Z" fill="black"/>
<path d="M15.14 16.23C13.9213 16.23 12.9296 15.2383 12.9296 14.0195C12.9296 12.8008 13.9213 11.8091 15.14 11.8091C16.3588 11.8091 17.3505 12.8008 17.3505 14.0195C17.3505 15.2383 16.3588 16.23 15.14 16.23ZM15.14 12.7856C14.4587 12.7856 13.9137 13.3382 13.9137 14.012C13.9137 14.6857 14.4663 15.2383 15.14 15.2383C15.8138 15.2383 16.3664 14.6857 16.3664 14.012C16.3664 13.3382 15.8138 12.7856 15.14 12.7856Z" fill="black"/>
<path d="M15.14 12.7856C14.8675 12.7856 14.648 12.5661 14.648 12.2936V3.4442C14.648 3.17168 14.8675 2.95215 15.14 2.95215C15.4126 2.95215 15.6321 3.17168 15.6321 3.4442V12.2936C15.6321 12.5661 15.4126 12.7856 15.14 12.7856Z" fill="black"/>
<path d="M22.271 13.77C21.0523 13.77 20.0606 12.7783 20.0606 11.5596C20.0606 10.3408 21.0523 9.34912 22.271 9.34912C23.4898 9.34912 24.4815 10.3408 24.4815 11.5596C24.4815 12.7783 23.4898 13.77 22.271 13.77ZM22.271 10.3257C21.5897 10.3257 21.0447 10.8783 21.0447 11.552C21.0447 12.2257 21.5973 12.7783 22.271 12.7783C22.9448 12.7783 23.4974 12.2257 23.4974 11.552C23.4974 10.8783 22.9448 10.3257 22.271 10.3257Z" fill="black"/>
<path d="M21.0522 10.8326C20.9236 10.8326 20.8024 10.7872 20.704 10.6888L17.9864 7.97116C17.8956 7.88032 17.8426 7.75163 17.8426 7.62294V4.17858C17.8426 3.90605 18.0621 3.68652 18.3346 3.68652C18.6071 3.68652 18.8267 3.90605 18.8267 4.17858V7.41855L21.4005 9.99235C21.5897 10.1816 21.5897 10.4995 21.4005 10.6888C21.3021 10.7872 21.1809 10.8326 21.0522 10.8326Z" fill="black"/>
<path d="M8.00909 13.77C6.79032 13.77 5.79865 12.7783 5.79865 11.5596C5.79865 10.3408 6.79032 9.34912 8.00909 9.34912C9.22787 9.34912 10.2195 10.3408 10.2195 11.5596C10.2195 12.7783 9.22787 13.77 8.00909 13.77ZM8.00909 10.3257C7.32779 10.3257 6.78275 10.8783 6.78275 11.552C6.78275 12.2257 7.33536 12.7783 8.00909 12.7783C8.68282 12.7783 9.23544 12.2257 9.23544 11.552C9.23544 10.8783 8.68282 10.3257 8.00909 10.3257Z" fill="black"/>
<path d="M9.22786 10.8326C9.09917 10.8326 8.97805 10.7872 8.87964 10.6888C8.69039 10.4995 8.69039 10.1816 8.87964 9.99235L11.4534 7.41855V4.17858C11.4534 3.90605 11.673 3.68652 11.9455 3.68652C12.218 3.68652 12.4376 3.90605 12.4376 4.17858V7.62294C12.4376 7.75163 12.3846 7.88032 12.2937 7.97116L9.57608 10.6888C9.47767 10.7872 9.35655 10.8326 9.22786 10.8326Z" fill="black"/>
</g>
<defs>
<clipPath id="clip0_690_813">
<rect width="30.2801" height="20" fill="white"/>
</clipPath>
</defs>
</svg>
