<svg width="28" height="44" viewBox="0 0 28 44" fill="none" xmlns="http://www.w3.org/2000/svg">
<g clip-path="url(#clip0_348_1113)">
<path d="M25.9042 36.1528H2.09568C0.774189 36.1528 -0.220813 37.3624 0.040375 38.659L0.348204 40.195C0.718221 42.0482 2.34443 43.3821 4.23493 43.3821H23.765C25.6555 43.3821 27.2817 42.0482 27.6517 40.195L27.9595 38.659C28.2176 37.3624 27.2257 36.1528 25.9042 36.1528ZM26.2338 39.912C26.0006 41.0843 24.9621 41.9363 23.765 41.9363H4.23493C3.03782 41.9363 1.99929 41.0843 1.76608 39.912L1.45825 38.376C1.40539 38.1148 1.52044 37.9252 1.59196 37.835C1.66347 37.7448 1.82827 37.5956 2.09568 37.5956H25.9011C26.1685 37.5956 26.3302 37.7448 26.4048 37.835C26.4764 37.9252 26.5914 38.1117 26.5385 38.376L26.2307 39.912H26.2338ZM5.32322 34.7038H22.6767C24.2749 34.7038 25.5684 33.4103 25.5684 31.8121V17.3504C25.5684 13.3579 22.3315 10.121 18.3391 10.121H9.66392C5.67147 10.121 2.4346 13.3579 2.4346 17.3504V31.8121C2.4346 33.4103 3.7281 34.7038 5.32633 34.7038H5.32322ZM6.76908 33.258V18.7962C6.76908 16.3989 8.71245 14.4586 11.1067 14.4586H16.8901C19.2875 14.4586 21.2277 16.402 21.2277 18.7962V33.258H6.76908ZM3.87735 17.3535C3.87735 14.1632 6.47058 11.57 9.66081 11.57H18.336C21.5262 11.57 24.1194 14.1632 24.1194 17.3535V31.8152C24.1194 32.6112 23.4696 33.2611 22.6736 33.2611V18.7993C22.6736 15.6091 20.0804 13.0159 16.8901 13.0159H11.1067C7.91644 13.0159 5.32322 15.6091 5.32322 18.7993V33.2611C4.52722 33.2611 3.87735 32.6112 3.87735 31.8152V17.3535ZM8.32377 7.22932H19.6792C21.1158 7.22932 22.0983 5.77724 21.5635 4.44642L20.5561 1.92471C20.0897 0.761799 18.9641 0 17.7141 0H10.292C9.03893 0 7.91333 0.761799 7.45004 1.92471L6.4426 4.44642C5.90778 5.78034 6.89035 7.22932 8.32688 7.22932H8.32377ZM7.77963 4.98434L8.78707 2.46263C9.03271 1.84697 9.6235 1.44586 10.2858 1.44586H17.7079C18.3733 1.44586 18.961 1.84386 19.2066 2.46263L20.2141 4.98434C20.3136 5.2362 20.2203 5.43209 20.155 5.52848C20.0897 5.62488 19.9404 5.78656 19.6699 5.78656H8.32377C8.05326 5.78656 7.90401 5.62488 7.83871 5.52848C7.77341 5.43209 7.68013 5.23309 7.77963 4.98434ZM9.66081 17.3535H18.336V18.7993H9.66081V17.3535ZM9.66081 21.6911H18.336V23.1369H9.66081V21.6911ZM9.66081 26.0287H18.336V27.4745H9.66081V26.0287ZM9.66081 30.3662H18.336V31.8121H9.66081V30.3662ZM9.66081 9.39967V7.9538H11.1067V9.39967H9.66081ZM16.8932 9.39967V7.9538H18.3391V9.39967H16.8932Z" fill="black"/>
</g>
<defs>
<clipPath id="clip0_348_1113">
<rect width="28" height="43.3821" fill="white"/>
</clipPath>
</defs>
</svg>
