<svg width="396" height="82" viewBox="0 0 396 82" fill="none" xmlns="http://www.w3.org/2000/svg">
<g clip-path="url(#clip0_616_628)">
<path d="M3.86626 4.81347C6.02339 4.26589 10.3874 3.43622 17.2903 3.43622C24.3092 3.43622 28.7065 4.28249 30.8304 4.83007C30.9964 4.89644 31.1125 5.02919 31.1457 5.21171V10.2561C31.1125 10.4552 30.9466 10.6211 30.7475 10.6709H3.84966C3.61736 10.6211 3.43483 10.422 3.43483 10.1731V5.31127C3.43483 5.06237 3.61736 4.84666 3.86626 4.81347ZM34.0329 2.29128L33.5186 2.07557C33.3028 1.9926 28.2751 0.00140381 17.2903 0.00140381C6.30548 0.00140381 1.2777 1.9926 1.07858 2.07557L0.564182 2.29128C0.232315 2.42403 0.0166016 2.7559 0.0166016 3.10436V20.8095V22.2199C0.0166016 22.5352 0.282095 22.8006 0.597368 22.8006H2.87066C3.18593 22.8006 3.45142 22.5352 3.45142 22.2199V14.4044C3.45142 14.1555 3.63395 13.9564 3.86626 13.9066H30.7641C30.9632 13.9564 31.1291 14.1057 31.1623 14.3215V22.2199C31.1623 22.5352 31.4278 22.8006 31.7431 22.8006H34.0163C34.3316 22.8006 34.5971 22.5352 34.5971 22.2199V20.8095V3.10436C34.5971 2.7393 34.3814 2.42403 34.0495 2.29128H34.0329Z" fill="black"/>
<path d="M49.2492 19.6979H47.1585C46.8598 19.6979 46.6939 19.5652 46.6939 19.2997V15.4998V1.06362C46.6939 0.748343 46.4284 0.482849 46.1131 0.482849H43.8398C43.5245 0.482849 43.259 0.748343 43.259 1.06362V3.5858V20.2621V22.2201C43.259 22.5022 43.4582 22.7179 43.7236 22.7677C43.7568 22.7677 43.79 22.7843 43.8398 22.7843H49.2492C49.5645 22.7843 49.83 22.5188 49.83 22.2035V20.2455C49.83 19.9302 49.5645 19.6647 49.2492 19.6647V19.6979Z" fill="black"/>
<path d="M61.5446 19.6979H59.4539C59.1552 19.6979 58.9893 19.5652 58.9893 19.2997V15.4998V1.06362C58.9893 0.748343 58.7238 0.482849 58.4085 0.482849H56.1352C55.8199 0.482849 55.5544 0.748343 55.5544 1.06362V3.5858V20.2621V22.2201C55.5544 22.5022 55.7536 22.7179 56.0191 22.7677C56.0522 22.7677 56.0854 22.7843 56.1352 22.7843H61.5446C61.8599 22.7843 62.1254 22.5188 62.1254 22.2035V20.2455C62.1254 19.9302 61.8599 19.6647 61.5446 19.6647V19.6979Z" fill="black"/>
<path d="M156.658 5.69037C156.658 5.69037 156.807 5.72356 156.89 5.72356C157.272 5.72356 157.62 5.47466 157.736 5.10961L158.234 3.51665C158.35 3.15159 158.234 2.76995 157.886 2.52105C157.819 2.47127 157.753 2.43808 157.67 2.42149C156.127 2.00665 150.153 0.529846 141.226 0.529846C130.224 0.529846 125.213 2.52105 124.998 2.60401L124.483 2.81973C124.151 2.95247 123.936 3.28434 123.936 3.6328V20.2427C123.936 20.6078 124.151 20.9231 124.483 21.0558L124.998 21.2715C125.213 21.3545 130.224 23.3457 141.226 23.3457C150.136 23.3457 156.127 21.8855 157.67 21.454C157.753 21.4375 157.819 21.4043 157.886 21.3545C158.217 21.1056 158.35 20.7073 158.234 20.3589L157.72 18.7161C157.72 18.7161 157.67 18.5668 157.62 18.5004C157.371 18.1852 157.006 18.069 156.674 18.1686C155.131 18.5834 149.489 19.9109 141.242 19.9109C134.34 19.9109 129.959 19.0978 127.802 18.5336C127.569 18.4838 127.37 18.2847 127.37 18.0358V14.153C127.37 13.9041 127.553 13.705 127.785 13.6552H154.285C154.6 13.6552 154.866 13.3897 154.866 13.0744V10.8011C154.866 10.4858 154.6 10.2204 154.285 10.2204H127.769C127.536 10.1706 127.37 9.97146 127.37 9.72256V8.21256V8.17937V5.85631C127.37 5.60741 127.553 5.39169 127.802 5.34191C129.959 4.79433 134.323 3.96467 141.226 3.96467C149.473 3.96467 155.114 5.29213 156.658 5.70697V5.69037Z" fill="black"/>
<path d="M111.524 22.2356C111.524 22.5508 111.789 22.8163 112.105 22.8163H114.378C114.693 22.8163 114.959 22.5508 114.959 22.2356V3.10344C114.959 2.73839 114.743 2.42312 114.411 2.29037L113.897 2.07466C113.681 1.99169 108.67 0.000488281 97.685 0.000488281C86.7003 0.000488281 81.6891 1.99169 81.4733 2.07466L80.959 2.29037C80.6271 2.42312 80.4114 2.75498 80.4114 3.10344V22.2356C80.4114 22.5508 80.6769 22.8163 80.9921 22.8163H83.2654C83.5807 22.8163 83.8462 22.5508 83.8462 22.2356V5.31036C83.8462 5.06146 84.0287 4.84574 84.2776 4.81256C86.4348 4.26498 90.7988 3.43531 97.7016 3.43531C104.721 3.43531 109.118 4.28157 111.242 4.82915C111.408 4.89552 111.524 5.02827 111.557 5.2108V22.219L111.524 22.2356Z" fill="black"/>
<path d="M167.112 21.1082L167.311 21.2244L167.56 21.3737C167.792 21.5065 173.334 24.6758 184.17 22.6348C195.005 24.6758 200.547 21.5065 200.779 21.3737L201.028 21.2244L201.228 21.1082C201.427 20.9423 201.559 20.6934 201.559 20.4279V1.12986C201.559 0.814586 201.31 0.549092 200.979 0.549092H198.722C198.407 0.549092 198.141 0.814586 198.141 1.12986V18.669C198.141 18.8847 197.992 19.0673 197.793 19.1336C197.212 19.3328 196.449 19.5485 195.486 19.7144C193.512 20.0795 190.375 20.3284 186.161 19.7144C185.978 19.648 185.845 19.4821 185.829 19.283V1.04689C185.829 0.731619 185.58 0.466125 185.248 0.466125H182.991C182.676 0.466125 182.411 0.731619 182.411 1.04689V19.2664C182.394 19.4655 182.261 19.6314 182.079 19.6978C177.864 20.3284 174.728 20.0795 172.753 19.6978C171.808 19.5153 171.028 19.3162 170.447 19.117C170.248 19.0507 170.115 18.8681 170.098 18.6524V1.12986C170.098 0.814586 169.85 0.549092 169.518 0.549092H167.261C166.946 0.549092 166.68 0.814586 166.68 1.12986V2.54029V20.4113C166.68 20.6934 166.813 20.9423 167.012 21.0916L167.112 21.1082Z" fill="black"/>
<path d="M0 77.8563V37.1694C11.549 35.4769 23.0316 34.7136 34.7796 34.6638C49.2158 34.6638 57.7614 35.5433 64.5979 36.738L62.0923 43.7736C55.3056 42.8941 46.7766 42.1972 34.7796 42.1972C26.8148 42.1972 18.7671 42.5125 10.8023 43.4583V53.2484H60.9639V60.7817H10.8023V71.4513C18.7671 72.4634 26.8148 72.7621 34.7796 72.7621C46.7766 72.7621 55.3056 72.0652 62.0923 71.1858L64.5979 78.2213C57.7614 79.416 49.2158 80.2955 34.7796 80.2955C23.0979 80.2291 11.549 79.5488 0 77.8397" fill="black"/>
<path d="M143.317 38.4969C145.391 39.5091 146.387 41.1352 146.387 43.6408V79.3663H135.518V46.2128C135.518 45.2006 135.452 44.4539 133.892 44.0722C129.992 43.06 124.467 42.3797 115.623 42.1972V79.3663H105.069V42.1972C96.225 42.3797 90.6994 43.0766 86.8 44.0722C85.2236 44.4539 85.1738 45.2006 85.1738 46.2128V79.3663H74.3052V43.6408C74.3052 41.1352 75.3174 39.4925 77.3749 38.4969C80.0133 37.2358 89.1064 34.6638 110.263 34.6638C131.419 34.6638 140.645 37.2358 143.284 38.4969" fill="black"/>
<path d="M168.174 79.3665H157.687V37.1863C169.617 35.5601 181.598 34.7304 193.595 34.6807C215.315 34.6807 223.977 37.5679 226.367 38.6963C228.441 39.7084 229.503 40.8368 229.503 43.6577V58.7244C229.503 61.5453 228.441 62.6736 226.367 63.6858C223.977 64.8805 215.315 67.7014 193.595 67.7014C183.987 67.7014 174.828 67.1372 168.174 66.4403V79.3665ZM193.611 60.1017C205.608 60.1017 212.378 59.2886 217.025 58.0939C218.601 57.7122 218.717 57.2144 218.717 56.2188V46.1798C218.717 45.1677 218.584 44.7362 217.025 44.3546C212.378 43.1599 205.592 42.2804 193.611 42.2804C185.265 42.2804 176.852 42.7782 168.506 43.5913V58.7908C176.852 59.6039 185.265 60.1017 193.611 60.1017Z" fill="black"/>
<path d="M309.233 39.6263C311.308 40.6385 312.37 41.7668 312.37 44.5877V72.2654C312.37 75.0863 311.308 76.2146 309.233 77.2268C306.844 78.3552 297.867 81.2424 276.146 81.2424C254.426 81.2424 245.449 78.3552 243.059 77.2268C240.985 76.2146 239.923 75.0863 239.923 72.2654V44.5877C239.923 41.7668 240.985 40.6385 243.059 39.6263C245.449 38.498 254.426 35.6107 276.146 35.6107C297.867 35.6107 306.844 38.498 309.233 39.6263ZM276.163 73.6592C288.16 73.6592 295.245 72.8462 299.958 71.6515C301.468 71.2698 301.584 70.772 301.584 69.7764V47.1099C301.584 46.0977 301.451 45.5999 299.958 45.2183C295.245 44.0235 288.16 43.2105 276.163 43.2105C264.166 43.2105 257.081 44.0235 252.368 45.2183C250.858 45.5999 250.742 46.0977 250.742 47.1099V69.7764C250.742 70.7886 250.875 71.2864 252.368 71.6515C257.081 72.8462 264.166 73.6592 276.163 73.6592Z" fill="black"/>
<path d="M383.505 70.5882C385.081 70.2065 385.131 69.7087 385.131 68.6965V35.6758H395.983V71.3349C395.983 74.1557 394.855 75.3505 392.847 76.2963C390.342 77.6071 384.302 80.3119 359.694 80.3119C335.086 80.3119 329.062 77.6071 326.54 76.2963C324.532 75.3505 323.404 74.1557 323.404 71.3349V35.6758H334.256V68.6965C334.256 69.7087 334.322 70.2065 335.882 70.5882C339.964 71.6501 341.657 72.596 354.4 72.7785V35.6758H364.954V72.7785C377.697 72.596 379.39 71.6501 383.472 70.5882" fill="black"/>
</g>
<defs>
<clipPath id="clip0_616_628">
<rect width="396" height="81.2576" fill="white"/>
</clipPath>
</defs>
</svg>
