<svg width="293" height="61" viewBox="0 0 293 61" fill="none" xmlns="http://www.w3.org/2000/svg">
<g clip-path="url(#clip0_823_6026)">
<path d="M2.86056 3.56147C4.45662 3.15631 7.68558 2.54244 12.793 2.54244C17.9863 2.54244 21.2398 3.16859 22.8113 3.57374C22.9341 3.62285 23.02 3.72107 23.0446 3.85612V7.58845C23.02 7.73578 22.8973 7.85855 22.7499 7.89539H2.84829C2.6764 7.85855 2.54135 7.71123 2.54135 7.52706V3.92979C2.54135 3.74563 2.6764 3.58602 2.86056 3.56147ZM25.1809 1.6953L24.8003 1.5357C24.6407 1.47431 20.9206 0.00102234 12.793 0.00102234C4.66534 0.00102234 0.945289 1.47431 0.79796 1.5357L0.417361 1.6953C0.171813 1.79352 0.012207 2.03907 0.012207 2.29689V15.3969V16.4405C0.012207 16.6737 0.208645 16.8702 0.441916 16.8702H2.12392C2.35719 16.8702 2.55363 16.6737 2.55363 16.4405V10.6578C2.55363 10.4736 2.68868 10.3263 2.86056 10.2895H22.7622C22.9095 10.3263 23.0323 10.4368 23.0569 10.5964V16.4405C23.0569 16.6737 23.2533 16.8702 23.4866 16.8702H25.1686C25.4019 16.8702 25.5983 16.6737 25.5983 16.4405V15.3969V2.29689C25.5983 2.02679 25.4387 1.79352 25.1931 1.6953H25.1809Z" fill="white"/>
<path d="M36.4393 14.5745H34.8924C34.6714 14.5745 34.5486 14.4762 34.5486 14.2798V11.4683V0.78694C34.5486 0.553669 34.3522 0.357231 34.1189 0.357231H32.4369C32.2036 0.357231 32.0072 0.553669 32.0072 0.78694V2.6531V14.9919V16.4406C32.0072 16.6493 32.1545 16.8089 32.3509 16.8458C32.3755 16.8458 32.4001 16.858 32.4369 16.858H36.4393C36.6726 16.858 36.869 16.6616 36.869 16.4283V14.9796C36.869 14.7463 36.6726 14.5499 36.4393 14.5499V14.5745Z" fill="white"/>
<path d="M45.5368 14.5745H43.9898C43.7688 14.5745 43.646 14.4762 43.646 14.2798V11.4683V0.78694C43.646 0.553669 43.4496 0.357231 43.2163 0.357231H41.5343C41.3011 0.357231 41.1046 0.553669 41.1046 0.78694V2.6531V14.9919V16.4406C41.1046 16.6493 41.2519 16.8089 41.4484 16.8458C41.4729 16.8458 41.4975 16.858 41.5343 16.858H45.5368C45.77 16.858 45.9665 16.6616 45.9665 16.4283V14.9796C45.9665 14.7463 45.77 14.5499 45.5368 14.5499V14.5745Z" fill="white"/>
<path d="M115.911 4.21029C115.911 4.21029 116.021 4.23485 116.083 4.23485C116.365 4.23485 116.623 4.05068 116.709 3.78058L117.077 2.60195C117.163 2.33185 117.077 2.04947 116.819 1.86531C116.77 1.82848 116.721 1.80392 116.66 1.79164C115.518 1.48471 111.098 0.392021 104.493 0.392021C96.3529 0.392021 92.6451 1.86531 92.4855 1.9267L92.1049 2.0863C91.8594 2.18452 91.6998 2.43007 91.6998 2.68789V14.9776C91.6998 15.2477 91.8594 15.4809 92.1049 15.5792L92.4855 15.7388C92.6451 15.8001 96.3529 17.2734 104.493 17.2734C111.086 17.2734 115.518 16.193 116.66 15.8738C116.721 15.8615 116.77 15.837 116.819 15.8001C117.065 15.616 117.163 15.3213 117.077 15.0635L116.697 13.848C116.697 13.848 116.66 13.7375 116.623 13.6884C116.439 13.4552 116.169 13.3692 115.923 13.4429C114.781 13.7498 110.607 14.732 104.505 14.732C99.3977 14.732 96.1565 14.1304 94.5604 13.713C94.3885 13.6762 94.2412 13.5288 94.2412 13.3447V10.4718C94.2412 10.2876 94.3762 10.1403 94.5481 10.1034H114.155C114.388 10.1034 114.585 9.907 114.585 9.67373V7.99173C114.585 7.75846 114.388 7.56202 114.155 7.56202H94.5358C94.364 7.52519 94.2412 7.37786 94.2412 7.1937V6.07645V6.0519V4.33306C94.2412 4.1489 94.3762 3.9893 94.5604 3.95247C96.1565 3.54731 99.3854 2.93344 104.493 2.93344C110.595 2.93344 114.769 3.91563 115.911 4.22257V4.21029Z" fill="white"/>
<path d="M82.5164 16.452C82.5164 16.6853 82.7128 16.8817 82.9461 16.8817H84.6281C84.8613 16.8817 85.0578 16.6853 85.0578 16.452V2.2962C85.0578 2.0261 84.8982 1.79283 84.6526 1.69461L84.272 1.535C84.1124 1.47362 80.4046 0.000328064 72.277 0.000328064C64.1494 0.000328064 60.4416 1.47362 60.282 1.535L59.9014 1.69461C59.6559 1.79283 59.4962 2.03838 59.4962 2.2962V16.452C59.4962 16.6853 59.6927 16.8817 59.926 16.8817H61.608C61.8412 16.8817 62.0377 16.6853 62.0377 16.452V3.92909C62.0377 3.74493 62.1727 3.58533 62.3569 3.56077C63.9529 3.15562 67.1819 2.54175 72.2893 2.54175C77.4826 2.54175 80.7361 3.1679 82.3076 3.57305C82.4304 3.62216 82.5164 3.72038 82.5409 3.85543V16.4398L82.5164 16.452Z" fill="white"/>
<path d="M123.646 15.618L123.793 15.7039L123.977 15.8144C124.149 15.9126 128.25 18.2576 136.267 16.7475C144.284 18.2576 148.385 15.9126 148.556 15.8144L148.741 15.7039L148.888 15.618C149.035 15.4952 149.133 15.311 149.133 15.1146V0.835975C149.133 0.602704 148.949 0.406266 148.704 0.406266H147.034C146.801 0.406266 146.604 0.602704 146.604 0.835975V13.8132C146.604 13.9728 146.494 14.1078 146.347 14.1569C145.917 14.3043 145.352 14.4639 144.64 14.5867C143.179 14.8568 140.859 15.0409 137.74 14.5867C137.605 14.5375 137.507 14.4148 137.495 14.2674V0.774588C137.495 0.541317 137.31 0.344879 137.065 0.344879H135.395C135.162 0.344879 134.965 0.541317 134.965 0.774588V14.2552C134.953 14.4025 134.855 14.5253 134.72 14.5744C131.601 15.0409 129.281 14.8568 127.82 14.5744C127.12 14.4393 126.543 14.292 126.113 14.1447C125.966 14.0956 125.868 13.9605 125.856 13.8009V0.835975C125.856 0.602704 125.671 0.406266 125.426 0.406266H123.756C123.523 0.406266 123.326 0.602704 123.326 0.835975V1.87955V15.1023C123.326 15.311 123.425 15.4952 123.572 15.6057L123.646 15.618Z" fill="white"/>
<path d="M0 57.6058V27.5016C8.54507 26.2493 17.041 25.6846 25.7334 25.6478C36.4147 25.6478 42.7376 26.2985 47.7959 27.1824L45.942 32.388C40.9206 31.7373 34.61 31.2217 25.7334 31.2217C19.8403 31.2217 13.8857 31.455 7.99258 32.1548V39.3984H45.1072V44.9724H7.99258V52.8667C13.8857 53.6157 19.8403 53.8366 25.7334 53.8366C34.61 53.8366 40.9206 53.321 45.942 52.6703L47.7959 57.8759C42.7376 58.7599 36.4147 59.4106 25.7334 59.4106C17.0901 59.3615 8.54507 58.8581 0 57.5935" fill="white"/>
<path d="M106.04 28.4838C107.575 29.2328 108.311 30.4359 108.311 32.2898V58.7231H100.27V34.1928C100.27 33.4439 100.22 32.8914 99.0664 32.609C96.1812 31.8601 92.0928 31.3567 85.549 31.2217V58.7231H77.7406V31.2217C71.1967 31.3567 67.1083 31.8724 64.2232 32.609C63.0568 32.8914 63.02 33.4439 63.02 34.1928V58.7231H54.9783V32.2898C54.9783 30.4359 55.7272 29.2205 57.2496 28.4838C59.2017 27.5507 65.9297 25.6478 81.5834 25.6478C97.2371 25.6478 104.063 27.5507 106.015 28.4838" fill="white"/>
<path d="M124.432 58.7232H116.672V27.5141C125.5 26.3109 134.364 25.6971 143.24 25.6602C159.312 25.6602 165.72 27.7965 167.488 28.6314C169.023 29.3803 169.809 30.2151 169.809 32.3023V43.4502C169.809 45.5373 169.023 46.3722 167.488 47.1211C165.72 48.0051 159.312 50.0922 143.24 50.0922C136.132 50.0922 129.355 49.6748 124.432 49.1592V58.7232ZM143.253 44.4692C152.129 44.4692 157.138 43.8676 160.576 42.9836C161.743 42.7012 161.828 42.3329 161.828 41.5963V34.1685C161.828 33.4195 161.73 33.1003 160.576 32.8179C157.138 31.934 152.117 31.2833 143.253 31.2833C137.077 31.2833 130.853 31.6516 124.677 32.2532V43.4993C130.853 44.1009 137.077 44.4692 143.253 44.4692Z" fill="white"/>
<path d="M228.802 29.3195C230.336 30.0684 231.122 30.9033 231.122 32.9904V53.4691C231.122 55.5563 230.336 56.3912 228.802 57.1401C227.034 57.9749 220.392 60.1112 204.32 60.1112C188.249 60.1112 181.607 57.9749 179.839 57.1401C178.305 56.3912 177.519 55.5563 177.519 53.4691V32.9904C177.519 30.9033 178.305 30.0684 179.839 29.3195C181.607 28.4846 188.249 26.3484 204.32 26.3484C220.392 26.3484 227.034 28.4846 228.802 29.3195ZM204.333 54.5004C213.209 54.5004 218.452 53.8988 221.939 53.0149C223.056 52.7325 223.142 52.3642 223.142 51.6275V34.8566C223.142 34.1077 223.044 33.7394 221.939 33.457C218.452 32.573 213.209 31.9714 204.333 31.9714C195.456 31.9714 190.214 32.573 186.727 33.457C185.61 33.7394 185.524 34.1077 185.524 34.8566V51.6275C185.524 52.3764 185.622 52.7448 186.727 53.0149C190.214 53.8988 195.456 54.5004 204.333 54.5004Z" fill="white"/>
<path d="M283.755 52.2281C284.921 51.9458 284.958 51.5774 284.958 50.8285V26.3965H292.988V52.7806C292.988 54.8678 292.153 55.7518 290.667 56.4516C288.813 57.4215 284.344 59.4227 266.137 59.4227C247.93 59.4227 243.473 57.4215 241.607 56.4516C240.121 55.7518 239.286 54.8678 239.286 52.7806V26.3965H247.316V50.8285C247.316 51.5774 247.365 51.9458 248.519 52.2281C251.539 53.0139 252.792 53.7137 262.221 53.8488V26.3965H270.029V53.8488C279.458 53.7137 280.71 53.0139 283.731 52.2281" fill="white"/>
</g>
<defs>
<clipPath id="clip0_823_6026">
<rect width="293" height="60.1224" fill="white"/>
</clipPath>
</defs>
</svg>
