<svg width="386" height="46" viewBox="0 0 386 46" fill="none" xmlns="http://www.w3.org/2000/svg">
<path d="M0 42.6932V3.13679C11.2573 1.49129 22.4499 0.749203 33.9014 0.700806C47.973 0.700806 56.3028 1.55582 62.9666 2.71735L60.5243 9.55745C53.909 8.70244 45.5954 8.02488 33.9014 8.02488C26.1377 8.02488 18.2932 8.3314 10.5295 9.25094V18.769H59.4244V26.0931H10.5295V36.4662C18.2932 37.4502 26.1377 37.7406 33.9014 37.7406C45.5954 37.7406 53.909 37.0631 60.5243 36.2081L62.9666 43.0482C56.3028 44.2097 47.973 45.0647 33.9014 45.0647C22.5146 45.0002 11.2573 44.3387 0 42.6771" fill="black"/>
<path d="M139.698 4.42738C141.719 5.41145 142.69 6.99241 142.69 9.42839V44.1613H132.096V11.9289C132.096 10.9448 132.031 10.2189 130.511 9.84783C126.71 8.86376 121.324 8.20234 112.703 8.02488V44.1613H102.416V8.02488C93.795 8.20234 88.4089 8.8799 84.608 9.84783C83.0714 10.2189 83.0229 10.9448 83.0229 11.9289V44.1613H72.4287V9.42839C72.4287 6.99241 73.4153 5.39531 75.421 4.42738C77.9927 3.20132 86.8562 0.700806 107.478 0.700806C128.101 0.700806 137.094 3.20132 139.665 4.42738" fill="black"/>
<path d="M163.927 44.1615H153.705V3.15314C165.334 1.57218 177.012 0.76556 188.706 0.717163C209.878 0.717163 218.321 3.52419 220.65 4.62119C222.672 5.60526 223.707 6.70226 223.707 9.44475V24.0929C223.707 26.8354 222.672 27.9324 220.65 28.9165C218.321 30.078 209.878 32.8205 188.706 32.8205C179.341 32.8205 170.413 32.272 163.927 31.5944V44.1615ZM188.722 25.4319C200.416 25.4319 207.015 24.6414 211.544 23.4799C213.08 23.1088 213.194 22.6249 213.194 21.6569V11.8969C213.194 10.9128 213.064 10.4934 211.544 10.1223C207.015 8.96078 200.4 8.10577 188.722 8.10577C180.586 8.10577 172.386 8.58974 164.25 9.38022V24.1574C172.386 24.9479 180.586 25.4319 188.722 25.4319Z" fill="black"/>
<path d="M301.425 5.52548C303.446 6.50955 304.482 7.60656 304.482 10.3491V37.2578C304.482 40.0003 303.446 41.0973 301.425 42.0813C299.096 43.1783 290.345 45.9854 269.173 45.9854C248.001 45.9854 239.251 43.1783 236.921 42.0813C234.9 41.0973 233.865 40.0003 233.865 37.2578V10.3491C233.865 7.60656 234.9 6.50955 236.921 5.52548C239.251 4.42848 248.001 1.62146 269.173 1.62146C290.345 1.62146 299.096 4.42848 301.425 5.52548ZM269.189 38.6129C280.883 38.6129 287.79 37.8224 292.383 36.6609C293.855 36.2898 293.968 35.8059 293.968 34.8379V12.8012C293.968 11.8171 293.839 11.3331 292.383 10.9621C287.79 9.80055 280.883 9.01007 269.189 9.01007C257.495 9.01007 250.589 9.80055 245.995 10.9621C244.523 11.3331 244.41 11.8171 244.41 12.8012V34.8379C244.41 35.822 244.54 36.306 245.995 36.6609C250.589 37.8224 257.495 38.6129 269.189 38.6129Z" fill="black"/>
<path d="M373.821 35.6271C375.357 35.2561 375.406 34.7721 375.406 33.788V1.68469H385.984V36.3531C385.984 39.0956 384.884 40.2571 382.927 41.1766C380.484 42.4511 374.597 45.0807 350.611 45.0807C326.624 45.0807 320.753 42.4511 318.294 41.1766C316.337 40.2571 315.237 39.0956 315.237 36.3531V1.68469H325.815V33.788C325.815 34.7721 325.88 35.2561 327.4 35.6271C331.379 36.6596 333.029 37.5791 345.451 37.7566V1.68469H355.738V37.7566C368.16 37.5791 369.809 36.6596 373.788 35.6271" fill="black"/>
</svg>
