<svg width="60" height="59" viewBox="0 0 60 59" fill="none" xmlns="http://www.w3.org/2000/svg">
<g clip-path="url(#clip0_687_1477)">
<path d="M31.8184 28.6214C31.3265 27.9656 30.8313 27.3065 30.3394 26.6473C27.68 23.0992 24.3908 18.7148 21.7018 15.1338H17.3568L27.8341 29.3658L29.2802 31.3268L38.2884 43.5651H43.0269C39.3378 38.6462 35.5141 33.5502 31.8184 28.6214Z" fill="white"/>
<path d="M50.7496 8.59494C45.2077 3.05298 37.8391 -2.28882e-05 29.9984 -2.28882e-05C22.1577 -2.28882e-05 14.7924 3.05298 9.24719 8.59494C3.70522 14.1369 0.652222 21.5087 0.652222 29.3462C0.652222 37.1836 3.70522 44.5554 9.24719 50.0974C14.7892 55.6393 22.1609 58.6923 29.9984 58.6923C37.8359 58.6923 45.2077 55.6393 50.7496 50.0974C56.2916 44.5554 59.3446 37.1836 59.3446 29.3462C59.3446 21.5087 56.2916 14.1369 50.7496 8.59494ZM37.098 45.9163C33.9565 41.6533 30.7789 37.341 27.6373 33.078C23.6202 37.3574 19.6031 41.6369 15.586 45.9163H12.2608C16.901 40.9712 21.5412 36.0195 26.1846 31.0743C21.7051 24.9946 17.1732 18.8591 12.697 12.776H22.8791C25.9092 16.8194 28.9425 20.8594 31.9725 24.9028C35.7634 20.8627 39.5575 16.8194 43.3483 12.776H46.6899C42.2727 17.4818 37.8588 22.1875 33.4416 26.89C37.1636 31.8581 40.984 36.918 44.7092 41.8795C45.7159 43.224 46.726 44.5718 47.736 45.9163H37.098Z" fill="white"/>
</g>
<defs>
<clipPath id="clip0_687_1477">
<rect width="58.6957" height="58.6924" fill="white" transform="translate(0.652222 -2.28882e-05)"/>
</clipPath>
</defs>
</svg>
